<svg id="Layer_1" data-name="Layer 1" xmlns="http://www.w3.org/2000/svg" viewBox="0 0 41.26 47.33"><defs><style>.cls-1{fill:#eff0f1;}.cls-2{fill:#e0e3e5;}.cls-3{fill:#d6dadd;}</style></defs><polygon class="cls-1" points="20.63 8.62 29.32 13.64 20.63 18.65 20.63 8.62"/><polygon class="cls-2" points="11.95 13.64 20.63 18.65 11.95 23.66 11.95 13.64"/><polygon class="cls-3" points="20.63 18.65 11.95 13.64 20.63 8.62 20.63 18.65"/><polygon class="cls-3" points="20.63 18.65 29.32 23.66 20.63 28.68 20.63 18.65"/><polygon class="cls-1" points="20.63 28.68 11.95 23.66 20.63 18.65 20.63 28.68"/><polygon class="cls-3" points="20.63 38.7 11.95 33.69 20.63 28.68 20.63 38.7"/><polygon class="cls-2" points="29.32 33.69 20.63 28.68 29.32 23.66 29.32 33.69"/><polygon class="cls-1" points="20.63 28.68 29.32 33.69 20.63 38.7 20.63 28.68"/><path class="cls-2" d="M2.4,37.35a1,1,0,0,1-1-1V13.69a1,1,0,1,1,2.07,0V36.31A1,1,0,0,1,2.4,37.35Z" transform="translate(-1.37 -1.34)"/><path class="cls-2" d="M41.6,37.35a1,1,0,0,1-1-1V13.69a1,1,0,1,1,2.07,0V36.31A1,1,0,0,1,41.6,37.35Z" transform="translate(-1.37 -1.34)"/><path class="cls-3" d="M22,48.66a1,1,0,0,1-.52-.14L1.89,37.21a1,1,0,1,1,1-1.79l19.6,11.31A1,1,0,0,1,22,48.66Z" transform="translate(-1.37 -1.34)"/><path class="cls-3" d="M2.4,14.72a1,1,0,0,1-.51-1.93L21.48,1.48a1,1,0,0,1,1.42.37,1.05,1.05,0,0,1-.38,1.42L2.92,14.58A1,1,0,0,1,2.4,14.72Z" transform="translate(-1.37 -1.34)"/><path class="cls-1" d="M41.6,14.72a1,1,0,0,1-.52-.14L21.48,3.27a1.05,1.05,0,0,1-.38-1.42,1,1,0,0,1,1.42-.37L42.11,12.79a1,1,0,0,1-.51,1.93Z" transform="translate(-1.37 -1.34)"/><path class="cls-1" d="M22,48.66a1,1,0,0,1-.52-1.93l19.6-11.31a1,1,0,0,1,1,1.79L22.52,48.52A1,1,0,0,1,22,48.66Z" transform="translate(-1.37 -1.34)"/></svg>